PathFileType	4	(X/Y/Z)	D:\TRACE\v60_Jaco2_6-2-23\v60_baseline_3-platform.trc
DataRate	CameraRate	NumFrames	NumMarkers	Units	OrigDataRate	OrigDataStartFrame	OrigNumFrames
100.00	100.00	      61	5	mm	100.00	4876	      6500
Frame#	Time	Left_Front			Right_Front			Left_Aft			Right_Aft			Post			
		X1	Y1	Z1	X2	Y2	Z2	X3	Y3	Z3	X4	Y4	Z4	X5	Y5	Z5	

4876	48.750	-800.58929	8.82535	-638.78906	769.36493	10.15884	-644.41766	-708.16174	7.28842	496.16751	733.17328	6.79489	505.58704	-14.09533	1308.14734	-961.62231	
4877	48.760	-800.62854	8.89562	-638.71185	769.40314	10.21415	-644.38739	-708.14117	7.32931	496.22559	733.26660	6.87081	505.55640	-14.09899	1308.14282	-961.51990	
4878	48.770	-800.63336	8.85190	-638.75372	769.41766	10.22423	-644.40344	-708.24658	7.36969	496.16425	733.33972	6.92067	505.51089	-14.05018	1308.14099	-961.55096	
4879	48.780	-800.54547	8.79318	-638.91681	769.37323	10.20440	-644.43109	-708.31598	7.34457	496.09326	734.06299	7.49695	505.91922	-14.09170	1308.14380	-961.62665	
4880	48.790	-800.50049	8.75124	-638.97131	769.34021	10.21950	-644.43073	-708.58954	7.87543	495.97351	733.19720	6.82291	505.59778	-14.13203	1308.20996	-961.78973	
4881	48.800	-800.51709	8.77098	-638.87646	769.33221	10.22000	-644.39508	-708.49530	7.75849	495.96698	733.22198	6.96669	506.08673	-14.04200	1308.16614	-961.96655	
4882	48.810	-800.56323	8.85008	-638.79144	769.33301	10.21545	-644.42816	-708.51276	7.87267	496.03333	733.49707	6.94812	505.85526	-14.05041	1308.13818	-962.11652	
4883	48.820	-800.61932	8.98085	-638.71552	769.36981	10.29178	-644.46301	-708.47992	7.83835	496.01907	733.49292	6.92520	505.77234	-14.05568	1308.24963	-962.23267	
4884	48.830	-800.60999	8.83733	-638.79089	769.40546	10.28619	-644.45746	-708.51917	7.84968	495.97565	733.53625	6.91792	505.78928	-14.02751	1308.22253	-962.16522	
4885	48.840	-800.58295	8.75568	-638.87061	769.29303	10.21284	-644.45782	-708.55286	7.81500	496.01459	733.46796	6.89874	505.82462	-14.05191	1308.12512	-961.99426	
4886	48.850	-800.54956	8.67082	-638.92004	769.36188	10.12031	-644.39203	-708.50720	7.82733	495.96030	733.37531	6.85614	505.86169	-13.98181	1307.99451	-961.87219	
4887	48.860	-800.58411	8.79321	-638.81042	769.35181	10.10821	-644.38416	-708.52246	7.82833	495.98947	733.37622	6.89200	505.84686	-13.96371	1308.01807	-961.74689	
4888	48.870	-800.67310	8.86715	-638.74365	769.37329	10.16996	-644.39777	-708.52423	7.82560	495.94879	733.39819	6.88311	505.78125	-13.98207	1308.05347	-961.78656	
4889	48.880	-800.68390	8.84530	-638.74066	769.39893	10.24966	-644.43555	-708.55109	7.83891	495.95053	733.44257	6.89881	505.77042	-14.07521	1308.11169	-961.84619	
4890	48.890	-800.63580	8.77873	-638.86395	769.34528	10.27918	-644.44958	-708.55664	7.82626	495.97501	733.46338	6.90184	505.79489	-14.02378	1308.13843	-961.86328	
4891	48.900	-800.54962	8.76648	-638.87744	769.32849	10.23315	-644.41882	-708.49689	7.77630	495.94330	733.45013	6.88852	505.79346	-13.97963	1308.13269	-961.87769	
4892	48.910	-800.52960	8.82447	-638.88953	769.38171	10.18375	-644.40302	-708.50153	7.79961	495.90182	733.23383	6.91548	505.90802	-13.89297	1308.07678	-961.89929	
4893	48.920	-800.55463	8.86738	-638.82599	769.38135	10.21715	-644.39600	-708.48718	7.81383	495.93781	733.16101	6.75256	505.42017	-14.04729	1308.13245	-961.98499	
4894	48.930	-800.64691	8.90773	-638.77325	769.39191	10.25031	-644.41730	-708.52460	7.87392	495.90213	732.36127	6.21741	504.82608	-14.03469	1308.18054	-961.99182	
4895	48.940	-800.62598	8.90051	-638.73987	769.42432	10.26139	-644.43304	-708.55328	7.88253	495.88144	733.31396	6.85343	505.44568	-13.99241	1308.15588	-961.97418	
4896	48.950	-800.56293	8.77666	-638.82623	769.68555	10.50450	-644.25348	-708.57965	7.85731	495.89484	733.23059	6.82842	505.43671	-14.07966	1308.12598	-961.92389	
4897	48.960	-800.48871	8.95413	-638.85919	769.34216	10.19370	-644.43591	-708.53577	7.84166	495.86765	733.22705	6.83614	505.44916	-14.04818	1308.08313	-961.86505	
4898	48.970	-800.46338	9.09488	-638.86115	769.26007	10.27800	-644.47247	-708.54846	7.84146	495.86990	733.17963	6.85347	505.44940	-14.10380	1308.06189	-961.85052	
4899	48.980	-800.59503	9.05775	-638.78735	769.33362	10.24911	-644.44452	-708.58356	7.93907	495.81589	733.24634	6.88584	505.39703	-14.05965	1308.11267	-961.89630	
4900	48.990	-800.62708	8.83838	-638.76044	769.47748	10.13242	-644.34424	-708.66498	8.03386	495.68817	733.39777	6.89931	505.41177	-14.05871	1308.20020	-962.00281	
4901	49.000	-800.54816	8.84243	-638.89648	769.53937	9.98169	-644.29132	-708.79138	8.01115	495.69788	733.37360	6.89064	505.42606	-14.21009	1308.26038	-961.99860	
4902	49.010	-800.58026	8.68453	-638.87543	769.41156	10.10893	-644.38654	-708.35150	7.40136	496.10715	732.83350	6.47977	505.27591	-14.08335	1308.16626	-961.96674	
4903	49.020	-800.48615	8.86338	-638.91412	769.39307	10.16234	-644.41028	-708.35223	7.36677	496.08118	732.27820	5.89081	504.87338	-13.96033	1308.14063	-961.88031	
4904	49.030	-800.52838	9.08937	-638.73169	769.36169	10.09743	-644.34546	-708.39093	7.50713	496.19257	733.18396	6.75312	505.25400	-14.11883	1308.13782	-961.74817	
4905	49.040	-800.55615	9.08112	-638.69000	769.41370	10.11445	-644.36139	-708.37543	7.53037	496.20648	733.18994	6.76394	505.25732	-14.20896	1308.13599	-961.65826	
4906	49.050	-800.64569	8.92573	-638.69354	769.41852	10.21593	-644.41168	-708.39264	7.53052	496.16269	733.41431	6.88015	505.26746	-14.07290	1308.10779	-961.58691	
4907	49.060	-800.60785	8.75325	-638.87952	769.39050	10.16602	-644.36841	-708.30121	7.36547	496.03146	733.33411	6.93460	505.24869	-14.04352	1307.99731	-961.69965	
4908	49.070	-800.55591	8.82699	-638.92438	769.61749	10.26875	-644.28870	-708.55615	7.72754	496.05859	733.32794	6.89352	505.24374	-14.16757	1307.99109	-961.86646	
4909	49.080	-800.48059	8.91289	-638.83038	769.48572	10.27599	-644.34406	-708.54840	7.76946	496.07083	733.22192	6.80953	505.23563	-14.07836	1308.01611	-962.06689	
4910	49.090	-800.50342	9.01599	-638.76208	769.46448	10.34895	-644.35474	-708.50214	7.79123	496.19659	733.27789	6.82486	505.26898	-13.97759	1308.11194	-962.29681	
4911	49.100	-800.52380	9.02140	-638.69043	769.59003	10.32287	-644.31494	-708.44415	7.74242	496.18146	733.38129	6.89795	505.27051	-14.01347	1308.23242	-962.40155	
4912	49.110	-800.56256	8.90333	-638.80475	769.42511	10.30209	-644.44354	-708.58759	7.79886	496.11197	733.45770	6.95604	505.26273	-13.98986	1308.27454	-962.35376	
4913	49.120	-800.54346	8.86063	-638.85278	769.47253	10.24593	-644.37256	-708.60895	7.70194	496.09259	733.40015	6.92933	505.25375	-14.02488	1308.20447	-962.27869	
4914	49.130	-800.45966	8.87964	-638.92981	769.39172	10.20598	-644.38763	-708.55902	7.69600	496.08331	733.35168	6.92428	505.25620	-14.08414	1308.12451	-962.00842	
4915	49.140	-800.46173	8.98933	-638.86652	769.45587	10.19497	-644.40881	-708.50220	7.76406	496.04669	733.41400	6.93396	505.24997	-14.21924	1308.14087	-961.71381	
4916	49.150	-800.53497	9.06607	-638.73608	769.49414	10.24351	-644.32611	-708.47412	7.84384	496.04733	733.44214	6.94889	505.24365	-14.22735	1308.11938	-961.44623	
4917	49.160	-800.58887	8.99781	-638.76288	769.49445	10.20884	-644.36230	-708.56763	7.81210	496.12439	733.46497	7.00588	505.26852	-14.09106	1308.13440	-961.39032	
4918	49.170	-800.55957	8.86151	-638.82141	769.46112	10.13967	-644.37097	-708.62634	7.83671	496.07205	733.36438	6.96258	505.26172	-14.17981	1308.08862	-961.54480	
4919	49.180	-800.51898	8.88786	-638.82440	769.45990	10.14906	-644.35223	-708.57532	7.74969	496.06940	733.28668	6.87029	505.22937	-14.12525	1308.10474	-961.74725	
4920	49.190	-800.47296	8.88751	-638.88110	769.38025	10.15654	-644.34772	-708.50531	7.68018	496.12683	733.28455	6.81461	505.23853	-14.12028	1308.15002	-962.02106	
4921	49.200	-800.50006	8.98800	-638.75500	769.40778	10.17971	-644.33881	-708.49951	7.74843	496.13974	733.26569	6.81142	505.25076	-14.02721	1308.11389	-962.18359	
4922	49.210	-800.57806	9.01955	-638.69751	769.47931	10.16009	-644.31671	-708.51941	7.76069	496.19434	733.27173	6.80998	505.24066	-14.03739	1308.15686	-962.29633	
4923	49.220	-800.59607	8.97574	-638.68982	769.36530	10.07668	-644.40131	-708.55219	7.72431	496.14453	733.28406	6.82313	505.28809	-13.97302	1308.18152	-962.29950	
4924	49.230	-800.58948	8.89389	-638.78033	769.42773	10.08944	-644.35175	-708.59229	7.74879	496.14749	733.24963	6.81508	505.24384	-13.98888	1308.09888	-962.16992	
4925	49.240	-800.52057	8.81494	-638.83826	769.38586	10.01650	-644.37793	-708.54266	7.73726	496.11166	733.26904	6.80371	505.24353	-14.10025	1308.03894	-961.98230	
4926	49.250	-800.47559	8.88501	-638.89215	769.36511	9.97647	-644.35699	-708.55975	7.77266	496.04938	733.35583	6.87873	505.26376	-14.02153	1307.95789	-961.83466	
4927	49.260	-800.53522	9.01920	-638.78046	769.34119	10.03145	-644.39386	-708.56787	7.86072	496.11069	733.36688	6.90853	505.24506	-14.05214	1308.05615	-961.69214	
4928	49.270	-800.58777	9.04445	-638.74353	769.34998	10.06481	-644.42188	-708.55481	7.78865	496.10995	733.36969	6.89945	505.25308	-14.12913	1308.13428	-961.77075	
4929	49.280	-800.58691	8.95311	-638.74835	769.31323	10.05538	-644.43237	-708.47919	7.59216	496.19595	733.36688	6.88454	505.27225	-14.16469	1308.18469	-961.84338	
4930	49.290	-800.49768	8.90942	-638.84460	769.34253	10.05348	-644.39697	-708.14740	7.13054	496.58420	733.36914	6.87847	505.25568	-14.10234	1308.20740	-961.90796	
4931	49.300	-800.44830	8.93879	-638.93591	769.32965	10.04301	-644.40851	-708.35443	7.42662	496.18973	733.42041	6.93256	505.24738	-14.10507	1308.17737	-962.00269	
4932	49.310	-800.48645	8.98270	-638.87256	769.35303	10.02397	-644.38654	-708.36475	7.45540	496.11655	733.39545	6.93904	505.23810	-13.96888	1308.13708	-961.96515	
4933	49.320	-800.55469	9.09561	-638.75586	769.30603	10.03671	-644.42432	-708.42261	7.51257	496.19247	733.39587	6.95372	505.25137	-14.14531	1308.20483	-961.94415	
4934	49.330	-800.54291	8.98434	-638.80115	769.33270	10.04990	-644.42889	-708.41974	7.49542	496.08994	733.38037	6.90255	505.23315	-14.09114	1308.14636	-961.92993	
4935	49.340	-800.56635	8.93641	-638.80811	769.29413	10.08003	-644.40698	-708.37610	7.46411	496.09955	733.37323	6.92560	505.23291	-14.06693	1308.06958	-961.85321	
4936	49.350	-800.48938	8.80749	-638.96149	769.28735	10.02264	-644.41064	-708.25897	7.36935	496.01727	733.36993	6.91597	505.23431	-14.03593	1308.03906	-961.89709	
